<svg xmlns="http://www.w3.org/2000/svg" viewBox="0 0 24 24" fill="white">
  <path d="M12 .5C5.73.5.5 5.73.5 12c0 5.1 3.29 9.42 7.86 10.95.57.1.78-.25.78-.56
  0-.28-.01-1.02-.02-2-3.2.7-3.88-1.54-3.88-1.54-.53-1.34-1.3-1.7-1.3-1.7
  -1.06-.72.08-.71.08-.71 1.17.08 1.78 1.2 1.78 1.2
  1.04 1.78 2.73 1.27 3.4.97.1-.75.4-1.27.72-1.56
  -2.55-.29-5.23-1.27-5.23-5.67
  0-1.25.45-2.27 1.2-3.07
  -.12-.29-.52-1.45.12-3.03
  0 0 .97-.31 3.18 1.17
  .92-.26 1.9-.39 2.88-.39
  .98 0 1.96.13 2.88.39
  2.2-1.48 3.18-1.17 3.18-1.17
  .64 1.58.24 2.74.12 3.03
  .75.8 1.2 1.82 1.2 3.07
  0 4.41-2.69 5.38-5.25 5.66
  .42.36.79 1.08.79 2.18
  0 1.57-.02 2.83-.02 3.22
  0 .31.2.67.79.56
  4.57-1.53 7.86-5.85 7.86-10.95
  C23.5 5.73 18.27.5 12 .5z"></path>
</svg>
